<svg width="283" height="286" viewBox="0 0 283 286" fill="none" xmlns="http://www.w3.org/2000/svg">
<g opacity="0.922612">
<path d="M237.031 235.079C231.604 240.793 226.469 244.477 222.412 247.388C174.723 281.606 118.294 271.631 106.302 269.195C88.5922 265.599 54.3603 258.646 29.6112 229.541C-7.83221 185.509 -2.00167 116.137 27.0419 70.3431C32.3544 61.9666 60.4167 15.4754 117.453 8.01967C151.971 3.50754 192.208 12.6081 221.346 37.0203C282.51 88.2636 278.156 191.784 237.031 235.079Z" fill="#DBE4FE"/>
</g>
<g opacity="0.922612">
<path d="M260.852 48.1211C260.536 47.729 260.21 47.3422 259.884 46.9716C259.748 46.8173 259.513 46.8023 259.357 46.9374C259.202 47.0726 259.186 47.3072 259.322 47.4614C259.641 47.8245 259.96 48.2031 260.27 48.5871C260.351 48.6869 260.472 48.734 260.591 48.7243C260.663 48.7185 260.734 48.6919 260.795 48.6433C260.955 48.5149 260.981 48.281 260.852 48.1211Z" fill="#96B6FA"/>
<path d="M268.201 70.4725C268.202 70.6783 268.369 70.8444 268.575 70.8438C268.584 70.8437 268.594 70.8434 268.603 70.8427C268.795 70.8273 268.946 70.6661 268.945 70.4702C268.942 69.5684 268.904 68.6565 268.833 67.7595C268.823 67.6395 268.813 67.5198 268.802 67.3998C268.783 67.1963 268.605 67.0459 268.402 67.0621C268.401 67.0623 268.399 67.0623 268.398 67.0624C268.193 67.0809 268.042 67.2619 268.061 67.4669C268.072 67.5839 268.081 67.7014 268.091 67.8185C268.161 68.6968 268.198 69.5896 268.201 70.4725Z" fill="#96B6FA"/>
<path d="M236.442 106.029C236.44 106.029 236.439 106.03 236.437 106.03C235.439 106.121 234.428 106.173 233.431 106.179C233.221 106.18 233.06 106.349 233.061 106.554C233.062 106.759 233.23 106.925 233.435 106.923C234.302 106.918 235.181 106.88 236.048 106.81C236.2 106.798 236.353 106.785 236.505 106.771C236.71 106.752 236.861 106.571 236.842 106.366C236.823 106.163 236.645 106.013 236.442 106.029Z" fill="#96B6FA"/>
<path d="M267.613 62.9306C267.631 62.9291 267.65 62.9262 267.668 62.9222C267.868 62.8752 267.993 62.6753 267.946 62.475C267.715 61.485 267.438 60.4903 267.122 59.5185C267.058 59.3231 266.849 59.2179 266.652 59.2799C266.456 59.3433 266.349 59.5534 266.413 59.7487C266.722 60.7003 266.994 61.6747 267.221 62.6446C267.263 62.8259 267.432 62.945 267.613 62.9306Z" fill="#96B6FA"/>
<path d="M264.895 55.4334C264.94 55.4298 264.985 55.418 265.028 55.3972C265.213 55.3076 265.29 55.0849 265.2 54.9003C264.754 53.9822 264.263 53.0744 263.742 52.2023C263.637 52.0254 263.408 51.9683 263.231 52.0734C263.054 52.1782 262.996 52.4064 263.101 52.5825C263.611 53.437 264.091 54.3258 264.529 55.2255C264.598 55.3674 264.746 55.4454 264.895 55.4334Z" fill="#96B6FA"/>
<path d="M258.065 96.2043C257.923 96.055 257.688 96.0504 257.54 96.1934C256.822 96.8881 256.066 97.5584 255.293 98.186C255.133 98.3157 255.109 98.5507 255.237 98.7113C255.318 98.8114 255.438 98.8587 255.557 98.8492C255.628 98.8435 255.699 98.8164 255.76 98.7677C256.549 98.1265 257.321 97.4418 258.055 96.7323C258.203 96.5894 258.207 96.3531 258.065 96.2043Z" fill="#96B6FA"/>
<path d="M263.159 90.4954C263.271 90.3228 263.223 90.0914 263.051 89.978C262.879 89.8657 262.649 89.9133 262.537 90.0858C261.992 90.9251 261.405 91.7503 260.792 92.5379C260.666 92.7004 260.694 92.9353 260.856 93.0627C260.933 93.1234 261.026 93.1486 261.115 93.1413C261.215 93.1331 261.311 93.0849 261.377 92.9996C262.003 92.195 262.602 91.3528 263.159 90.4954Z" fill="#96B6FA"/>
<path d="M244.62 104.6C244.556 104.404 244.346 104.296 244.151 104.362C243.201 104.673 242.228 104.947 241.257 105.177C241.057 105.224 240.934 105.425 240.981 105.625C241.023 105.806 241.192 105.925 241.372 105.911C241.391 105.909 241.41 105.906 241.428 105.902C242.419 105.667 243.413 105.387 244.382 105.07C244.577 105.006 244.684 104.795 244.62 104.6Z" fill="#96B6FA"/>
<path d="M265.073 86.2994C265.134 86.3285 265.199 86.3393 265.261 86.3343C265.389 86.324 265.508 86.2471 265.567 86.1223C266.003 85.1969 266.404 84.2427 266.759 83.2864C266.831 83.0933 266.733 82.8779 266.541 82.8056C266.349 82.7329 266.135 82.8309 266.063 83.0241C265.715 83.9608 265.323 84.8952 264.896 85.8016C264.808 85.9879 264.887 86.2107 265.073 86.2994Z" fill="#96B6FA"/>
<path d="M267.69 78.7691C267.728 78.7774 267.765 78.78 267.802 78.7771C267.96 78.7645 268.098 78.6504 268.134 78.487C268.357 77.4899 268.539 76.4712 268.676 75.4589C268.704 75.2546 268.562 75.0668 268.358 75.0388C268.154 75.0113 267.968 75.1532 267.94 75.3575C267.806 76.3487 267.627 77.3468 267.409 78.3234C267.364 78.5244 267.49 78.7237 267.69 78.7691Z" fill="#96B6FA"/>
<path d="M251.816 101.16C251.71 100.983 251.482 100.925 251.306 101.031C250.453 101.543 249.565 102.025 248.668 102.464C248.483 102.554 248.407 102.778 248.497 102.963C248.566 103.105 248.713 103.183 248.861 103.172C248.906 103.168 248.951 103.156 248.994 103.135C249.91 102.686 250.817 102.194 251.688 101.672C251.864 101.566 251.921 101.337 251.816 101.16Z" fill="#96B6FA"/>
<path d="M228.528 105.923C228.036 105.858 227.546 105.782 227.07 105.698C226.868 105.664 226.674 105.798 226.638 106C226.602 106.202 226.737 106.395 226.94 106.431C227.425 106.516 227.926 106.594 228.428 106.661C228.455 106.664 228.482 106.665 228.508 106.663C228.679 106.649 228.823 106.518 228.847 106.341C228.875 106.138 228.732 105.951 228.528 105.923Z" fill="#96B6FA"/>
<path d="M204.622 92.0097C204.334 91.6191 204.049 91.2144 203.774 90.807C203.659 90.6368 203.428 90.5918 203.256 90.7062C203.085 90.8206 203.039 91.0519 203.154 91.222C203.435 91.638 203.726 92.0513 204.02 92.4503C204.1 92.5581 204.227 92.6105 204.351 92.6004C204.418 92.595 204.484 92.5718 204.542 92.5292C204.708 92.4077 204.744 92.175 204.622 92.0097Z" fill="#96B6FA"/>
<path d="M212.282 41.8011C212.163 41.6336 211.931 41.5948 211.764 41.7136C210.95 42.2969 210.15 42.923 209.387 43.5745C209.231 43.7077 209.212 43.9432 209.345 44.1006C209.426 44.1958 209.543 44.2406 209.658 44.2313C209.733 44.2253 209.807 44.1963 209.869 44.1438C210.616 43.5061 211.398 42.893 212.195 42.322C212.362 42.2022 212.401 41.9694 212.282 41.8011Z" fill="#96B6FA"/>
<path d="M199.027 61.0609C199.086 60.8636 198.974 60.6557 198.777 60.5964C198.581 60.5364 198.374 60.6492 198.315 60.8465C198.028 61.8104 197.779 62.7978 197.574 63.7816C197.532 63.9835 197.661 64.1812 197.861 64.2236C197.897 64.2314 197.933 64.2333 197.968 64.2305C198.127 64.2177 198.266 64.101 198.301 63.9355C198.502 62.9721 198.746 62.0051 199.027 61.0609Z" fill="#96B6FA"/>
<path d="M204.319 49.9803C204.421 49.972 204.519 49.9215 204.586 49.8326C205.174 49.0436 205.802 48.2712 206.453 47.5364C206.589 47.3824 206.575 47.1462 206.422 47.0086C206.269 46.8714 206.034 46.885 205.898 47.0383C205.233 47.7889 204.592 48.5774 203.991 49.3831C203.868 49.548 203.902 49.7824 204.066 49.9066C204.142 49.9638 204.232 49.9874 204.319 49.9803Z" fill="#96B6FA"/>
<path d="M201.994 53.8884C202.094 53.7082 202.03 53.4806 201.851 53.3798C201.671 53.279 201.445 53.3434 201.346 53.5235C200.859 54.4027 200.403 55.313 199.991 56.2296C199.907 56.4177 199.99 56.6391 200.177 56.7242C200.236 56.7517 200.299 56.7615 200.36 56.7566C200.49 56.7461 200.611 56.6668 200.668 56.5388C201.072 55.6407 201.518 54.7491 201.994 53.8884Z" fill="#96B6FA"/>
<path d="M219.145 38.0064C219.065 37.8168 218.847 37.7257 218.658 37.8073C217.732 38.1977 216.815 38.6311 215.93 39.0947C215.748 39.1899 215.678 39.4152 215.773 39.5979C215.844 39.7343 215.988 39.8083 216.132 39.7969C216.18 39.7929 216.229 39.7797 216.274 39.7555C217.141 39.3015 218.04 38.8772 218.947 38.4945C219.136 38.4147 219.225 38.1961 219.145 38.0064Z" fill="#96B6FA"/>
<path d="M198.07 76.4647C198.039 76.2611 197.852 76.1212 197.646 76.153C197.442 76.1838 197.303 76.3736 197.334 76.5767C197.485 77.567 197.681 78.5646 197.915 79.5415C197.959 79.7222 198.127 79.8401 198.306 79.8257C198.326 79.8242 198.345 79.8213 198.364 79.8167C198.564 79.7687 198.687 79.5674 198.639 79.3678C198.409 78.4108 198.218 77.434 198.07 76.4647Z" fill="#96B6FA"/>
<path d="M197.693 68.7095C197.708 68.5043 197.553 68.326 197.348 68.3116C197.144 68.2973 196.966 68.4517 196.951 68.6569C196.881 69.6596 196.852 70.6767 196.866 71.6803C196.869 71.8861 197.038 72.0508 197.243 72.048C197.252 72.0477 197.26 72.0474 197.268 72.0467C197.462 72.0314 197.613 71.8679 197.61 71.6702C197.596 70.6877 197.624 69.6917 197.693 68.7095Z" fill="#96B6FA"/>
<path d="M201.326 86.6561C200.895 85.7766 200.496 84.8657 200.138 83.9486C200.063 83.7571 199.847 83.6642 199.655 83.7372C199.463 83.8117 199.368 84.0273 199.443 84.2188C199.808 85.1549 200.216 86.0848 200.656 86.9825C200.725 87.1241 200.872 87.2018 201.021 87.1899C201.066 87.1862 201.111 87.1742 201.154 87.1533C201.339 87.063 201.416 86.8404 201.326 86.6561Z" fill="#96B6FA"/>
<path d="M234.5 35.268C234.509 35.0624 234.349 34.8894 234.143 34.8808C233.139 34.8385 232.121 34.8389 231.118 34.8816C230.909 34.8871 230.753 35.0636 230.762 35.2691C230.77 35.4742 230.944 35.6335 231.15 35.6247C232.131 35.5828 233.128 35.5827 234.111 35.6238C234.127 35.6247 234.142 35.6242 234.158 35.623C234.342 35.6081 234.492 35.4577 234.5 35.268Z" fill="#96B6FA"/>
<path d="M226.671 35.7868C226.634 35.5848 226.441 35.4527 226.238 35.4867C225.254 35.6651 224.263 35.8883 223.291 36.1503C223.093 36.204 222.976 36.4083 223.029 36.6069C223.077 36.783 223.242 36.8951 223.418 36.8812C223.44 36.8794 223.463 36.8757 223.485 36.8696C224.437 36.6128 225.408 36.3942 226.371 36.2197C226.573 36.1832 226.708 35.9893 226.671 35.7868Z" fill="#96B6FA"/>
<path d="M240.529 35.6716C240.037 35.562 239.54 35.4617 239.053 35.3739C238.849 35.3371 238.656 35.4718 238.619 35.674C238.583 35.8757 238.717 36.0692 238.92 36.1056C239.397 36.1914 239.883 36.2895 240.365 36.3971C240.403 36.4054 240.44 36.4078 240.477 36.4049C240.635 36.392 240.774 36.2786 240.811 36.1154C240.856 35.9151 240.73 35.7166 240.529 35.6716Z" fill="#96B6FA"/>
<path d="M242.227 45.1623C242.063 45.0824 241.866 45.1152 241.737 45.2441L238.055 48.9208C235.686 48.3812 233.214 48.2153 230.726 48.4682L227.524 44.3714C227.412 44.2277 227.221 44.1712 227.048 44.2305L221.147 46.2609C220.974 46.3203 220.858 46.4826 220.858 46.6648L220.855 51.8647C218.738 53.1962 216.891 54.8478 215.355 56.731L210.191 56.0979C210.01 56.0759 209.835 56.1708 209.755 56.3347L207.017 61.9435C206.937 62.1076 206.97 62.3043 207.099 62.4332L210.776 66.1147C210.236 68.4839 210.07 70.9563 210.323 73.4441L206.226 76.6463C206.083 76.7587 206.026 76.9496 206.085 77.1221L208.116 83.0237C208.175 83.1963 208.338 83.3121 208.52 83.3122L213.72 83.3158C215.051 85.4325 216.703 87.2794 218.586 88.8149L217.953 93.9796C217.931 94.1605 218.026 94.3357 218.19 94.4157L223.798 97.1528C223.962 97.2329 224.159 97.2001 224.288 97.0712L227.97 93.3946C230.339 93.9343 232.811 94.1 235.299 93.8472L238.501 97.9439C238.614 98.0875 238.805 98.1443 238.977 98.0849L244.879 96.0545C245.051 95.9952 245.167 95.8327 245.167 95.6504L245.171 90.4507C247.288 89.1193 249.134 87.4674 250.67 85.5842L255.834 86.2173C256.015 86.2396 256.191 86.1444 256.271 85.9805L259.008 80.3717C259.088 80.2079 259.055 80.0112 258.926 79.8822L255.25 76.2005C255.789 73.8313 255.955 71.359 255.702 68.8712L259.799 65.6689C259.943 65.5568 259.999 65.3656 259.94 65.1933L257.909 59.2916C257.85 59.1191 257.688 59.0033 257.505 59.0031L252.306 58.9995C250.974 56.8829 249.322 55.036 247.439 53.5004L248.072 48.3359C248.094 48.1549 247.999 47.9797 247.835 47.8996L242.227 45.1623Z" fill="#96B6FA"/>
<path d="M233.506 77.2405C232.929 77.2865 232.343 77.2498 231.76 77.1277C230.166 76.7933 228.797 75.8581 227.906 74.4938C227.014 73.1299 226.708 71.5004 227.042 69.9055C227.377 68.3107 228.312 66.9418 229.676 66.0507C231.04 65.1597 232.67 64.8528 234.265 65.1873C235.859 65.5217 237.229 66.4574 238.119 67.8217C239.011 69.1857 239.317 70.815 238.983 72.4099C238.648 74.0047 237.713 75.3736 236.349 76.2647C235.483 76.8305 234.509 77.1605 233.506 77.2405ZM232.609 66.1884C231.79 66.2538 230.995 66.5235 230.287 66.9859C229.173 67.7137 228.409 68.8319 228.135 70.1349C227.862 71.4375 228.113 72.7686 228.841 73.883C229.569 74.9974 230.687 75.7616 231.99 76.0349C233.293 76.3086 234.624 76.0581 235.738 75.3295C236.852 74.6016 237.617 73.4835 237.89 72.1805C238.163 70.8779 237.913 69.5467 237.185 68.4323C236.457 67.3178 235.338 66.5534 234.035 66.2803C233.56 66.1806 233.081 66.1508 232.609 66.1884ZM229.982 66.5183L229.985 66.518L229.982 66.5183Z" fill="#C0D2FB"/>
<path d="M234.21 86.8521C227.276 87.4054 220.562 83.2377 218.197 76.3634C217.761 75.0949 217.498 73.8081 217.396 72.5286C216.841 65.5941 221.009 58.8792 227.884 56.5135C228.008 56.4711 228.132 56.4303 228.257 56.3908C229.097 56.125 229.957 55.9299 230.821 55.8091C230.923 55.7948 231.024 55.7816 231.125 55.7696L231.257 56.8786C230.241 57.0002 229.228 57.2326 228.248 57.5698C228.238 57.5727 228.229 57.576 228.22 57.5793C220.677 60.1916 216.655 68.4484 219.253 75.9998C221.855 83.5605 230.122 87.5948 237.684 84.9941C244.067 82.7978 247.937 76.5629 247.422 70.1246C247.327 68.9363 247.083 67.7418 246.678 66.5641C245.823 64.0784 244.313 61.8747 242.312 60.1919L243.031 59.3373C245.186 61.1504 246.813 63.5235 247.734 66.2004C248.17 67.4691 248.433 68.7559 248.535 70.0354C249.09 76.9698 244.922 83.6847 238.047 86.0505C236.778 86.4868 235.49 86.75 234.21 86.8521Z" fill="#C0D2FB"/>
</g>
<g opacity="0.922612">
<path d="M200.355 10.0539C200.338 10.1235 200.289 10.1842 200.217 10.2116C199.939 10.3172 199.662 10.4288 199.395 10.5436C199.281 10.5925 199.149 10.5402 199.1 10.427C199.051 10.3136 199.103 10.1822 199.217 10.1336C199.49 10.0162 199.772 9.902 200.056 9.79415C200.172 9.75022 200.302 9.80799 200.346 9.92315C200.363 9.96648 200.365 10.0118 200.355 10.0539Z" fill="#96B6FA"/>
<path d="M227.181 39.4586C227.178 39.4739 227.173 39.4891 227.166 39.5039C227.035 39.7779 226.899 40.0493 226.76 40.3107C226.703 40.4198 226.567 40.4616 226.458 40.404C226.348 40.3464 226.307 40.2111 226.364 40.1021C226.499 39.8461 226.633 39.5802 226.761 39.3117C226.814 39.2002 226.948 39.153 227.059 39.2061C227.156 39.2521 227.205 39.3585 227.181 39.4586Z" fill="#96B6FA"/>
<path d="M214.538 50.5111C214.52 50.584 214.467 50.6466 214.39 50.672C214.107 50.7661 213.816 50.8561 213.525 50.9393C213.406 50.9735 213.282 50.905 213.248 50.7864C213.214 50.6676 213.282 50.544 213.401 50.51C213.686 50.4285 213.971 50.3405 214.248 50.2482C214.365 50.2092 214.493 50.2726 214.532 50.3896C214.546 50.4303 214.547 50.4721 214.538 50.5111Z" fill="#96B6FA"/>
<path d="M209.796 8.77449C209.799 8.76359 209.8 8.75256 209.801 8.74127C209.811 8.61805 209.72 8.51024 209.596 8.50033C208.986 8.45108 208.365 8.42745 207.75 8.43001C207.626 8.43059 207.528 8.53099 207.527 8.65463C207.528 8.77809 207.628 8.87783 207.752 8.87725C208.354 8.87471 208.963 8.8978 209.56 8.94609C209.672 8.95502 209.771 8.88033 209.796 8.77449Z" fill="#96B6FA"/>
<path d="M229.089 29.8893C228.965 29.8902 228.865 29.9907 228.867 30.1149C228.871 30.7163 228.849 31.3245 228.803 31.923C228.794 32.0463 228.886 32.154 229.009 32.1635C229.12 32.1722 229.219 32.0972 229.244 31.9913C229.246 31.9803 229.248 31.969 229.249 31.9574C229.296 31.3465 229.318 30.7254 229.314 30.1115C229.313 29.9879 229.212 29.8884 229.089 29.8893Z" fill="#96B6FA"/>
<path d="M228.334 34.8246C228.334 34.8254 228.334 34.8264 228.334 34.8272C228.203 35.4147 228.047 36.0018 227.869 36.5731C227.831 36.693 227.898 36.8164 228.016 36.8532C228.134 36.8902 228.259 36.8246 228.296 36.7066C228.452 36.2105 228.591 35.7011 228.71 35.1926C228.731 35.1033 228.751 35.0138 228.771 34.9239C228.798 34.8033 228.721 34.684 228.601 34.6573C228.481 34.6308 228.362 34.7055 228.334 34.8246Z" fill="#96B6FA"/>
<path d="M204.754 8.61267C204.144 8.6984 203.532 8.81103 202.936 8.94751C202.815 8.97495 202.74 9.09471 202.767 9.2151C202.795 9.33536 202.915 9.41052 203.036 9.38288C203.621 9.24947 204.22 9.13896 204.817 9.05503C204.911 9.04188 204.983 8.97195 205.004 8.885C205.01 8.85861 205.011 8.83094 205.007 8.80267C204.99 8.6805 204.876 8.59539 204.754 8.61267Z" fill="#96B6FA"/>
<path d="M214.207 9.89255C214.325 9.92972 214.451 9.86442 214.488 9.7465C214.49 9.74099 214.491 9.73546 214.493 9.72991C214.519 9.61709 214.454 9.50113 214.342 9.46567C213.826 9.30267 213.298 9.15763 212.772 9.03454C212.701 9.01808 212.631 9.00206 212.561 8.98634C212.441 8.95962 212.322 9.03452 212.294 9.15384C212.294 9.15458 212.294 9.15533 212.294 9.1562C212.267 9.27693 212.343 9.39646 212.463 9.4233C212.532 9.43862 212.601 9.45458 212.67 9.47057C213.185 9.59104 213.702 9.73298 214.207 9.89255Z" fill="#96B6FA"/>
<path d="M226.899 20.6225C226.788 20.677 226.742 20.8115 226.796 20.923C227.058 21.4646 227.3 22.0235 227.514 22.5843C227.558 22.6999 227.687 22.7575 227.802 22.7129C227.874 22.6851 227.923 22.6244 227.94 22.5544C227.949 22.5121 227.947 22.4663 227.931 22.4226C227.712 21.8499 227.465 21.2788 227.197 20.7257C227.143 20.6141 227.009 20.568 226.899 20.6225Z" fill="#96B6FA"/>
<path d="M222.618 14.7188C222.645 14.689 222.664 14.6537 222.672 14.6166C222.69 14.541 222.668 14.4584 222.608 14.4014C222.162 13.9802 221.694 13.5735 221.216 13.1927C221.119 13.1158 220.979 13.1324 220.902 13.2296C220.826 13.3268 220.842 13.4681 220.938 13.545C221.407 13.9178 221.866 14.3163 222.302 14.729C222.392 14.8138 222.533 14.8092 222.618 14.7188Z" fill="#96B6FA"/>
<path d="M224.631 16.6228C224.554 16.5261 224.414 16.5109 224.317 16.5886C224.222 16.6663 224.206 16.8075 224.283 16.9044C224.657 17.3744 225.016 17.8661 225.349 18.3656C225.418 18.4684 225.556 18.4958 225.659 18.4265C225.707 18.3938 225.739 18.345 225.752 18.2919C225.765 18.2331 225.756 18.169 225.72 18.1149C225.38 17.605 225.014 17.1029 224.631 16.6228Z" fill="#96B6FA"/>
<path d="M218.832 11.7755C218.844 11.7555 218.852 11.7344 218.857 11.713C218.879 11.6199 218.839 11.5196 218.753 11.4687C218.225 11.158 217.678 10.8664 217.126 10.6022C217.015 10.549 216.881 10.5964 216.828 10.7082C216.775 10.8205 216.822 10.9537 216.933 11.007C217.474 11.2658 218.01 11.5513 218.527 11.8555C218.633 11.9181 218.77 11.8822 218.832 11.7755Z" fill="#96B6FA"/>
<path d="M228.515 25.1318C228.395 25.16 228.32 25.2808 228.348 25.4012C228.483 25.9854 228.596 26.5842 228.681 27.1806C228.699 27.3031 228.812 27.388 228.934 27.3701C229.028 27.3566 229.099 27.2864 229.12 27.1992C229.126 27.1728 229.127 27.1445 229.123 27.116C229.036 26.507 228.921 25.8958 228.783 25.2992C228.755 25.1786 228.635 25.1037 228.515 25.1318Z" fill="#96B6FA"/>
<path d="M187.119 36.2433C187.002 36.2812 186.937 36.4076 186.974 36.5255C187.156 37.1014 187.365 37.6766 187.595 38.2357C187.642 38.3501 187.772 38.4044 187.886 38.3569C187.955 38.328 188.002 38.2684 188.018 38.2006C188.029 38.1563 188.026 38.1086 188.007 38.0635C187.782 37.5161 187.577 36.9528 187.399 36.389C187.362 36.2709 187.236 36.2057 187.119 36.2433Z" fill="#96B6FA"/>
<path d="M195.545 47.4996C195.444 47.4296 195.305 47.4557 195.235 47.558C195.165 47.6601 195.191 47.7997 195.293 47.8697C195.789 48.2116 196.306 48.5362 196.828 48.8345C196.936 48.8957 197.072 48.8578 197.133 48.7502C197.144 48.731 197.151 48.711 197.156 48.6905C197.178 48.5962 197.137 48.4947 197.049 48.4445C196.538 48.1523 196.032 47.8344 195.545 47.4996Z" fill="#96B6FA"/>
<path d="M186.271 31.604C186.149 31.6151 186.057 31.7237 186.069 31.8474C186.122 32.4506 186.201 33.0573 186.303 33.6505C186.324 33.7724 186.44 33.854 186.562 33.8329C186.652 33.8169 186.721 33.7478 186.741 33.6629C186.747 33.6344 186.749 33.6041 186.743 33.5735C186.643 32.9925 186.566 32.3983 186.513 31.8073C186.503 31.6841 186.394 31.5931 186.271 31.604Z" fill="#96B6FA"/>
<path d="M190.261 42.3452C190.275 42.2849 190.265 42.2189 190.227 42.1642C189.888 41.6791 189.566 41.174 189.27 40.6631C189.208 40.556 189.072 40.52 188.965 40.5826C188.859 40.6451 188.823 40.783 188.885 40.8899C189.187 41.4117 189.515 41.9275 189.861 42.4229C189.932 42.5243 190.071 42.5487 190.172 42.4773C190.218 42.4443 190.249 42.3968 190.261 42.3452Z" fill="#96B6FA"/>
<path d="M192.032 44.426C191.948 44.3353 191.806 44.3304 191.716 44.4149C191.626 44.4998 191.621 44.6416 191.704 44.7323C192.114 45.175 192.547 45.6054 192.991 46.012C193.083 46.0955 193.224 46.0885 193.307 45.9966C193.333 45.9675 193.35 45.9332 193.359 45.8973C193.377 45.8205 193.354 45.7363 193.292 45.6795C192.856 45.2812 192.432 44.8595 192.032 44.426Z" fill="#96B6FA"/>
<path d="M186.451 26.8903C186.329 26.8744 186.218 26.9608 186.201 27.0834C186.123 27.6797 186.069 28.2885 186.041 28.8933C186.036 29.0167 186.131 29.1215 186.254 29.1273C186.364 29.1322 186.458 29.0578 186.482 28.9547C186.485 28.9415 186.487 28.9278 186.488 28.9139C186.515 28.3217 186.568 27.7254 186.644 27.1414C186.66 27.019 186.574 26.9064 186.451 26.8903Z" fill="#96B6FA"/>
<path d="M210.567 51.0889C209.983 51.173 209.387 51.2338 208.795 51.2695C208.671 51.2769 208.578 51.3831 208.585 51.506C208.593 51.6291 208.699 51.723 208.822 51.7155C209.427 51.6791 210.035 51.6172 210.632 51.5312C210.726 51.5176 210.797 51.4478 210.818 51.361C210.824 51.3346 210.825 51.3066 210.821 51.2781C210.803 51.156 210.69 51.0712 210.567 51.0889Z" fill="#96B6FA"/>
<path d="M187.661 22.3313C187.545 22.2887 187.417 22.3482 187.374 22.4639C187.165 23.0301 186.979 23.6117 186.82 24.1923C186.785 24.3131 186.857 24.4343 186.977 24.467C187.096 24.4996 187.219 24.4296 187.252 24.3106C187.408 23.7421 187.59 23.1727 187.794 22.6185C187.798 22.6097 187.8 22.6008 187.802 22.5919C187.828 22.4836 187.769 22.3708 187.661 22.3313Z" fill="#96B6FA"/>
<path d="M204.135 51.01C204.012 50.9904 203.898 51.0721 203.878 51.1957C203.859 51.3177 203.942 51.4325 204.064 51.4519C204.659 51.5466 205.266 51.6172 205.868 51.6617C205.98 51.6699 206.078 51.5953 206.103 51.4901C206.106 51.4788 206.107 51.467 206.108 51.4552C206.117 51.3319 206.025 51.2248 205.902 51.2156C205.311 51.172 204.717 51.1027 204.135 51.01Z" fill="#96B6FA"/>
<path d="M199.645 49.7327C199.53 49.6869 199.401 49.743 199.355 49.8578C199.309 49.9726 199.365 50.1029 199.479 50.1487C200.039 50.3727 200.615 50.5753 201.191 50.7509C201.309 50.7869 201.434 50.72 201.47 50.6016C201.471 50.5969 201.472 50.5921 201.473 50.5872C201.5 50.4733 201.434 50.3568 201.321 50.3222C200.757 50.1503 200.193 49.9521 199.645 49.7327Z" fill="#96B6FA"/>
<path d="M189.47 19.1445C189.465 19.1658 189.456 19.1869 189.445 19.2069C189.294 19.4618 189.149 19.7212 189.012 19.9777C188.954 20.0865 188.818 20.1276 188.709 20.0697C188.599 20.0115 188.557 19.8767 188.616 19.7673C188.756 19.5055 188.905 19.2405 189.058 18.9802C189.121 18.8739 189.258 18.8384 189.365 18.901C189.452 18.9519 189.491 19.0517 189.47 19.1445Z" fill="#96B6FA"/>
<path d="M194.635 20.0446C194.56 20.1238 194.542 20.2424 194.593 20.3398L196.024 23.1205C195.281 24.3781 194.734 25.7631 194.423 27.2337L191.492 28.317C191.389 28.355 191.322 28.4541 191.324 28.5637L191.406 32.3139C191.409 32.4235 191.48 32.5195 191.585 32.5529L194.561 33.5066C194.936 34.9621 195.543 36.3218 196.34 37.5455L195.033 40.3863C194.987 40.4858 195.009 40.6035 195.089 40.6793L197.799 43.2727C197.878 43.3486 197.997 43.3658 198.094 43.3156L200.875 41.8845C202.132 42.6272 203.517 43.1744 204.988 43.485L206.071 46.4165C206.109 46.5192 206.208 46.5866 206.318 46.5843L210.068 46.5018C210.178 46.4994 210.274 46.4277 210.307 46.3234L211.261 43.3471C212.716 42.9723 214.076 42.3648 215.299 41.5677L218.14 42.8752C218.24 42.921 218.358 42.8987 218.433 42.8196L221.027 40.1095C221.103 40.0303 221.12 39.9116 221.07 39.8141L219.639 37.0337C220.381 35.7761 220.929 34.3909 221.239 32.9205L224.171 31.837C224.273 31.799 224.341 31.7 224.338 31.5904L224.256 27.8401C224.254 27.7304 224.182 27.6346 224.078 27.6011L221.101 26.6474C220.727 25.192 220.119 23.8323 219.322 22.6085L220.629 19.7678C220.675 19.6683 220.653 19.5505 220.574 19.4748L217.864 16.8813C217.784 16.8055 217.666 16.7883 217.568 16.8384L214.788 18.2694C213.53 17.5268 212.145 16.9796 210.674 16.6691L209.591 13.7375C209.553 13.6348 209.454 13.5674 209.345 13.5699L205.594 13.6522C205.485 13.6547 205.389 13.7262 205.355 13.8306L204.402 16.8068C202.946 17.1816 201.586 17.7894 200.363 18.5864L197.522 17.2788C197.422 17.233 197.305 17.2554 197.229 17.3346L194.635 20.0446Z" fill="#96B6FA"/>
<path d="M211.404 30.9077C211.325 31.2463 211.196 31.5755 211.02 31.8865C210.537 32.7382 209.751 33.3507 208.806 33.6112C207.862 33.8718 206.874 33.7491 206.022 33.2658C205.17 32.7824 204.558 31.9964 204.297 31.0523C204.036 30.1084 204.159 29.1193 204.642 28.2675C205.126 27.4158 205.912 26.8032 206.856 26.5429C207.8 26.2822 208.789 26.4049 209.641 26.8883C210.492 27.3717 211.105 28.1577 211.365 29.1018C211.531 29.701 211.542 30.3187 211.404 30.9077ZM204.913 29.3984C204.8 29.8796 204.809 30.384 204.944 30.8739C205.157 31.6451 205.657 32.2872 206.353 32.682C207.049 33.0768 207.857 33.1771 208.628 32.9643C209.399 32.7514 210.041 32.251 210.436 31.5552C210.831 30.8594 210.931 30.0515 210.718 29.2802C210.506 28.509 210.005 27.8669 209.309 27.4721C208.614 27.0772 207.806 26.9769 207.034 27.1898C206.263 27.4027 205.621 27.903 205.226 28.5988C205.082 28.8528 204.977 29.1217 204.913 29.3984ZM204.621 30.9631L204.621 30.9609L204.621 30.9631Z" fill="#C0D2FB"/>
<path d="M217.034 32.2647C216.082 36.3355 212.467 39.4165 208.099 39.5124C207.293 39.5302 206.508 39.4452 205.757 39.2695C201.686 38.3177 198.604 34.7026 198.508 30.3339C198.506 30.2554 198.506 30.1769 198.506 30.0983C198.508 29.5686 198.553 29.0405 198.642 28.5235C198.653 28.463 198.664 28.4027 198.675 28.3426L199.334 28.4696C199.218 29.0741 199.166 29.6964 199.179 30.3193C199.179 30.3251 199.179 30.331 199.18 30.3368C199.295 35.1333 203.286 38.9468 208.084 38.8413C212.889 38.7357 216.711 34.7414 216.606 29.9363C216.517 25.8802 213.656 22.5236 209.876 21.6397C209.178 21.4766 208.45 21.3977 207.701 21.4142C206.122 21.4489 204.584 21.9098 203.254 22.7472L202.897 22.1792C204.329 21.2772 205.985 20.7805 207.686 20.7431C208.493 20.7255 209.277 20.8103 210.029 20.9861C214.1 21.9379 217.181 25.5529 217.278 29.9216C217.295 30.7279 217.21 31.5134 217.034 32.2647Z" fill="#C0D2FB"/>
</g>
<g opacity="0.922612">
<path d="M18.8696 237.992C18.8696 240.313 20.7706 242.212 23.0941 242.212H251.537C253.861 242.212 255.762 240.313 255.762 237.992L257.663 106.711C257.663 104.39 254.928 99.8585 249.916 100.199L26.6559 94.4222C23.7406 94.3468 20.9219 95.4688 18.8574 97.5266C16.7931 99.5843 15.6633 102.398 15.7322 105.31L18.8696 237.992Z" fill="#1E147E"/>
<path d="M23.0402 233.942C23.0402 236.141 24.8386 237.939 27.0369 237.939H246.028C248.227 237.939 250.025 236.141 250.025 233.942L251.819 114.765C251.608 107.593 245.32 105.016 241.508 105.168L27.5339 99.4274C25.4858 99.3724 23.5056 100.162 22.055 101.608C20.6043 103.055 19.8065 105.036 19.8579 107.084L23.0402 233.942Z" fill="#96B6FA"/>
<path d="M247.659 177.325H247.653C247.326 177.32 247.068 177.054 247.073 176.73L247.215 167.065C247.219 166.745 247.481 166.488 247.8 166.488H247.809C248.132 166.493 248.391 166.759 248.386 167.083L248.244 176.748C248.239 177.068 247.978 177.325 247.659 177.325Z" fill="#C0D2FB"/>
<path d="M248.007 153.641H247.998C247.674 153.636 247.416 153.369 247.421 153.046L247.964 116.029C247.954 113.83 247.287 112.074 245.98 110.822C243.542 108.486 239.67 108.605 239.507 108.613L171.116 106.779C170.793 106.771 170.538 106.501 170.547 106.178C170.555 105.855 170.804 105.58 171.148 105.609L239.498 107.443C239.923 107.418 244.045 107.346 246.791 109.976C248.335 111.456 249.124 113.495 249.135 116.034L248.592 153.064C248.587 153.384 248.326 153.641 248.007 153.641Z" fill="#C0D2FB"/>
<path d="M0.885739 253.11H269.114C269.416 253.11 269.663 252.863 269.663 252.561V242.124C269.663 241.822 269.416 241.575 269.114 241.575H0.885739C0.583949 241.575 0.337097 241.822 0.337097 242.124V252.561C0.337097 252.863 0.583949 253.11 0.885739 253.11Z" fill="#1E147E"/>
</g>
<g opacity="0.922612">
<path d="M67.3779 42.7951C67.3779 34.7572 73.8939 28.2411 81.9318 28.2411H205.699C212.527 28.2411 218.157 33.5922 218.505 40.4115L227.64 219.851C227.912 225.187 223.711 229.688 218.369 229.785L76.5163 232.363C71.4964 232.454 67.3779 228.41 67.3779 223.39V42.7951Z" fill="#5153F1"/>
<path d="M97.2483 229.313H97.2438L81.3713 229.108C76.0639 229.039 71.7462 224.665 71.7462 219.357V195.393C71.7462 195.205 71.8978 195.054 72.085 195.054C72.2721 195.054 72.4238 195.205 72.4238 195.393V219.357C72.4238 224.296 76.4415 228.366 81.3802 228.43L97.2524 228.635C97.4396 228.637 97.5893 228.791 97.587 228.978C97.5845 229.164 97.4334 229.313 97.2483 229.313Z" fill="#96B6FA"/>
<path d="M72.085 188.308C71.8978 188.308 71.7462 188.157 71.7462 187.969V184.088C71.7462 183.901 71.8978 183.75 72.085 183.75C72.2721 183.75 72.4238 183.901 72.4238 184.088V187.969C72.4238 188.157 72.2721 188.308 72.085 188.308Z" fill="#96B6FA"/>
<path d="M77.5177 31.0031C77.5025 28.4314 79.764 26.4411 82.3124 26.7866C99.2139 29.0787 157.334 36.1674 205.386 32.4787C207.578 32.3104 209.48 33.9708 209.596 36.1655L219.176 216.404C219.307 218.876 217.42 220.989 214.949 221.135C194.739 222.331 111.508 226.955 81.8203 223.845C80.0134 223.656 78.6419 222.135 78.6312 220.318L77.5177 31.0031Z" fill="#839CF4"/>
<path d="M79.5085 35.5197C79.4939 33.045 81.6703 31.1295 84.1227 31.4621C100.388 33.6678 156.319 40.4896 202.562 36.9398C204.671 36.7779 206.502 38.3758 206.614 40.4878L215.832 213.94C215.959 216.318 214.143 218.352 211.765 218.492C192.316 219.643 112.219 224.093 83.6491 221.1C81.9103 220.918 80.5904 219.454 80.5802 217.706L79.5085 35.5197Z" fill="#C0D2FB"/>
<path d="M94.5653 48.8926L96.2928 86.079C96.3503 87.3158 97.3494 88.2992 98.587 88.3341C105.474 88.5284 126.934 89.0518 139.051 88.4201C140.422 88.3486 141.506 87.2397 141.552 85.868C141.783 78.8942 142.288 58.5963 140.699 50.1112C140.442 48.7406 139.264 47.7363 137.871 47.6875L97.164 46.264C95.6962 46.2126 94.4971 47.4255 94.5653 48.8926Z" fill="white"/>
<path d="M196.407 52.1296C197.205 52.1296 197.841 51.5683 197.821 50.8821C197.801 50.196 197.132 49.623 196.334 49.6088L151.697 48.8134C150.899 48.7992 150.463 49.403 150.728 50.1554L150.942 50.7618C151.207 51.5141 152.076 52.1296 152.874 52.1296H196.407Z" fill="white"/>
<path d="M151.697 55.7458C150.899 55.7317 150.463 56.3355 150.728 57.0878L150.942 57.6943C151.207 58.4466 152.076 59.0621 152.874 59.0621H196.407C197.205 59.0621 197.841 58.5007 197.821 57.8146C197.801 57.1285 197.132 56.5555 196.335 56.5413L151.697 55.7458Z" fill="white"/>
<path d="M151.697 62.7789C150.899 62.7648 150.463 63.3686 150.728 64.1209L150.942 64.7274C151.207 65.4797 152.076 66.0952 152.874 66.0952H196.407C197.205 66.0952 197.841 65.5339 197.821 64.8477C197.801 64.1617 197.132 63.5886 196.335 63.5744L151.697 62.7789Z" fill="white"/>
<path d="M200.743 100.013C201.541 100.013 202.156 99.4516 202.111 98.7655C202.065 98.0793 201.376 97.5128 200.578 97.5065L96.0034 96.6822C95.2058 96.6759 94.9597 97.1813 95.4566 97.8052L96.311 98.8785C96.808 99.5024 97.867 100.013 98.6646 100.013H200.743Z" fill="white"/>
<path d="M96.0035 105.575C95.2059 105.569 94.9599 106.074 95.4567 106.698L96.3111 107.771C96.8079 108.395 97.867 108.906 98.6646 108.906H200.743C201.541 108.906 202.156 108.344 202.111 107.658C202.065 106.972 201.376 106.406 200.578 106.399L96.0035 105.575Z" fill="white"/>
<path d="M109.027 150.889H109.003L100.177 150.805C98.9158 150.792 97.8749 149.925 97.7555 148.787L96.9797 141.381C96.9342 140.947 97.0691 140.517 97.3597 140.171C97.685 139.784 98.1772 139.541 98.7102 139.505C99.4538 139.454 100.501 139.365 101.61 139.27C103.944 139.072 106.849 138.824 108.484 138.804C109.67 138.798 110.676 139.5 110.955 140.533C111.415 142.233 111.375 145.45 111.287 148.878C111.259 149.992 110.247 150.889 109.027 150.889ZM98.7566 140.181C98.4062 140.205 98.0861 140.361 97.8786 140.607C97.7073 140.811 97.6276 141.061 97.6538 141.311L98.4296 148.716C98.5129 149.511 99.267 150.118 100.183 150.127L109.009 150.212H109.027C109.882 150.212 110.59 149.609 110.61 148.861C110.696 145.485 110.737 142.322 110.301 140.709C110.106 139.987 109.354 139.484 108.492 139.482C106.882 139.502 103.99 139.748 101.667 139.946C100.556 140.041 99.5057 140.13 98.7566 140.181Z" fill="white"/>
<path d="M99.7059 140.945C101.56 140.819 105.59 140.409 107.501 140.386C108.311 140.375 109.021 140.865 109.211 141.567C109.58 142.931 109.531 145.65 109.467 148.159C109.448 148.91 108.758 149.51 107.915 149.502L100.862 149.434C99.9946 149.426 99.2745 148.835 99.1938 148.064L98.5738 142.147C98.5096 141.534 99.0186 140.992 99.7059 140.945Z" fill="white"/>
<path d="M116.779 145.972C117.034 146.941 117.915 147.613 118.917 147.605L200.578 146.908C201.502 146.901 202.241 146.139 202.221 145.215C202.201 144.317 201.47 143.598 200.572 143.594L118.908 143.222C117.466 143.215 116.411 144.578 116.779 145.972Z" fill="white"/>
<path d="M109.027 169.806H109.003L100.177 169.721C98.9158 169.709 97.8749 168.841 97.7555 167.703L96.9797 160.298C96.9342 159.863 97.0691 159.433 97.3597 159.087C97.685 158.701 98.1772 158.458 98.7102 158.421C99.4538 158.371 100.501 158.281 101.61 158.187C103.944 157.988 106.849 157.741 108.484 157.72C108.496 157.72 108.508 157.72 108.519 157.72C109.68 157.72 110.679 158.427 110.955 159.449C111.415 161.149 111.375 164.367 111.287 167.795C111.259 168.908 110.247 169.806 109.027 169.806ZM98.7566 159.097C98.4062 159.121 98.0861 159.277 97.8786 159.524C97.7073 159.727 97.6276 159.977 97.6538 160.227L98.4296 167.632C98.5129 168.428 99.267 169.034 100.183 169.043L109.009 169.128H109.027C109.882 169.128 110.59 168.525 110.61 167.777C110.696 164.401 110.737 161.238 110.301 159.626C110.105 158.904 109.343 158.384 108.492 158.398C106.882 158.418 103.99 158.664 101.667 158.862C100.556 158.957 99.5057 159.046 98.7566 159.097Z" fill="white"/>
<path d="M99.7059 159.862C101.56 159.735 105.59 159.326 107.501 159.302C108.311 159.292 109.021 159.781 109.211 160.483C109.58 161.847 109.531 164.566 109.467 167.075C109.448 167.827 108.758 168.426 107.915 168.418L100.862 168.351C99.9946 168.342 99.2745 167.751 99.1938 166.981L98.5738 161.063C98.5096 160.451 99.0186 159.909 99.7059 159.862Z" fill="white"/>
<path d="M116.779 164.889C117.034 165.857 117.915 166.53 118.917 166.521L200.578 165.825C201.502 165.817 202.241 165.055 202.221 164.131C202.201 163.233 201.47 162.515 200.572 162.511L118.908 162.138C117.466 162.131 116.411 163.495 116.779 164.889Z" fill="white"/>
<path d="M109.027 188.722H109.003L100.177 188.637C98.9158 188.625 97.8749 187.758 97.7555 186.62L96.9797 179.214C96.9342 178.78 97.0691 178.35 97.3598 178.004C97.6851 177.617 98.1772 177.374 98.7102 177.337C99.4538 177.287 100.501 177.197 101.609 177.103C103.944 176.904 106.849 176.657 108.484 176.637C108.496 176.637 108.508 176.636 108.519 176.636C109.68 176.636 110.679 177.343 110.955 178.365C111.415 180.065 111.375 183.283 111.287 186.711C111.259 187.824 110.247 188.722 109.027 188.722ZM98.7566 178.014C98.4062 178.038 98.0861 178.193 97.8786 178.44C97.7073 178.643 97.6276 178.893 97.6538 179.144L98.4296 186.549C98.5129 187.344 99.267 187.951 100.183 187.96L109.009 188.044H109.027C109.882 188.044 110.59 187.442 110.61 186.694C110.696 183.318 110.737 180.154 110.301 178.542C110.105 177.82 109.343 177.298 108.492 177.314C106.882 177.334 103.99 177.581 101.667 177.778C100.556 177.873 99.5057 177.962 98.7566 178.014Z" fill="white"/>
<path d="M99.7059 178.778C101.56 178.651 105.59 178.242 107.501 178.218C108.311 178.208 109.021 178.698 109.211 179.4C109.58 180.764 109.531 183.482 109.467 185.991C109.448 186.743 108.758 187.343 107.915 187.335L100.862 187.267C99.9946 187.258 99.2745 186.667 99.1938 185.897L98.5738 179.979C98.5096 179.367 99.0186 178.825 99.7059 178.778Z" fill="white"/>
<path d="M116.779 183.805C117.034 184.774 117.915 185.446 118.917 185.437L200.578 184.741C201.502 184.733 202.241 183.971 202.221 183.048C202.201 182.15 201.47 181.431 200.572 181.427L118.908 181.054C117.466 181.048 116.411 182.411 116.779 183.805Z" fill="white"/>
<path d="M109.027 207.638H109.003L100.177 207.553C98.9158 207.541 97.8749 206.674 97.7555 205.536L96.9797 198.13C96.9342 197.696 97.0691 197.266 97.3598 196.92C97.6851 196.533 98.1772 196.29 98.7102 196.253C99.4538 196.203 100.501 196.113 101.609 196.019C103.944 195.82 106.849 195.573 108.484 195.553C108.496 195.553 108.508 195.552 108.519 195.552C109.68 195.552 110.679 196.259 110.955 197.281C111.415 198.981 111.375 202.199 111.287 205.627C111.259 206.741 110.247 207.638 109.027 207.638ZM98.7566 196.93C98.4062 196.954 98.0861 197.109 97.8786 197.356C97.7073 197.56 97.6276 197.809 97.6538 198.06L98.4296 205.465C98.5129 206.26 99.267 206.867 100.183 206.876L109.009 206.96H109.027C109.882 206.96 110.59 206.358 110.61 205.61C110.696 202.234 110.737 199.07 110.301 197.458C110.105 196.736 109.343 196.212 108.492 196.23C106.882 196.25 103.99 196.497 101.667 196.695C100.556 196.789 99.5057 196.879 98.7566 196.93Z" fill="white"/>
<path d="M99.7059 197.694C101.56 197.568 105.59 197.159 107.501 197.135C108.311 197.125 109.021 197.614 109.211 198.316C109.58 199.68 109.531 202.399 109.467 204.908C109.448 205.659 108.758 206.259 107.915 206.251L100.862 206.183C99.9946 206.175 99.2745 205.584 99.1938 204.813L98.5738 198.896C98.5096 198.283 99.0186 197.741 99.7059 197.694Z" fill="white"/>
<path d="M116.779 202.721C117.034 203.69 117.915 204.362 118.917 204.354L200.578 203.657C201.502 203.65 202.241 202.888 202.221 201.964C202.201 201.066 201.47 200.347 200.572 200.343L118.908 199.971C117.466 199.964 116.411 201.327 116.779 202.721Z" fill="white"/>
<path d="M108.248 134.43H108.224L99.398 134.345C98.1371 134.333 97.0962 133.466 96.9767 132.328L96.2009 124.922C96.1554 124.488 96.2904 124.058 96.5811 123.712C96.9064 123.325 97.3984 123.082 97.9314 123.045C98.675 122.995 99.7222 122.905 100.831 122.811C103.165 122.612 106.07 122.365 107.705 122.345C107.717 122.345 107.729 122.344 107.74 122.344C108.901 122.344 109.9 123.051 110.176 124.073C110.636 125.773 110.596 128.991 110.508 132.419C110.48 133.532 109.468 134.43 108.248 134.43ZM97.9778 123.722C97.6274 123.746 97.3073 123.901 97.0998 124.148C96.9286 124.352 96.8488 124.601 96.875 124.852L97.6508 132.257C97.7342 133.052 98.4882 133.659 99.4045 133.668L108.231 133.752H108.248C109.104 133.752 109.812 133.15 109.831 132.402C109.917 129.026 109.958 125.862 109.522 124.25C109.327 123.528 108.564 123.004 107.713 123.022C106.103 123.042 103.212 123.289 100.888 123.486C99.7768 123.581 98.7269 123.67 97.9778 123.722Z" fill="#686868"/>
<path d="M98.9271 124.486C100.781 124.359 104.811 123.95 106.722 123.926C107.532 123.916 108.242 124.406 108.432 125.108C108.801 126.472 108.752 129.19 108.688 131.699C108.669 132.451 107.979 133.051 107.136 133.043L100.083 132.975C99.2159 132.967 98.4958 132.375 98.4151 131.605L97.795 125.687C97.7309 125.075 98.2398 124.533 98.9271 124.486Z" fill="white"/>
<path d="M116 129.513C116.256 130.482 117.136 131.154 118.138 131.146L199.8 130.449C200.723 130.441 201.462 129.68 201.442 128.756C201.423 127.858 200.691 127.139 199.793 127.135L118.129 126.763C116.688 126.756 115.633 128.119 116 129.513Z" fill="white"/>
<path d="M151.492 3.77561C147.021 0.665449 143.134 0.727066 140.397 1.53449C137.901 2.27099 136.283 4.68115 136.52 7.27305L137.701 20.1538L151.743 21.4001C151.743 21.4001 160.259 9.87514 151.492 3.77561ZM145.316 14.1673C143.382 14.1673 141.814 12.5997 141.814 10.6658C141.814 8.73187 143.382 7.16417 145.316 7.16417C147.25 7.16417 148.818 8.73187 148.818 10.6658C148.818 12.5997 147.25 14.1673 145.316 14.1673Z" fill="#1E147E"/>
<path d="M139.103 14.7354C138.93 14.7354 138.782 14.6034 138.766 14.4272L138.578 12.3759C138.561 12.1896 138.698 12.0248 138.885 12.0076C139.075 11.9897 139.236 12.1277 139.253 12.3144L139.441 14.3657C139.458 14.552 139.321 14.7168 139.134 14.7341C139.124 14.735 139.113 14.7354 139.103 14.7354ZM138.735 10.7154C138.562 10.7154 138.414 10.5833 138.398 10.4073L138.255 8.84996C138.029 6.381 139.582 4.08214 141.949 3.38349C143.625 2.8888 145.352 2.81797 147.081 3.17283C147.265 3.21018 147.383 3.38951 147.345 3.5728C147.308 3.75581 147.13 3.87293 146.945 3.83655C145.325 3.50498 143.709 3.57086 142.141 4.03353C140.083 4.64068 138.733 6.64047 138.93 8.78844L139.073 10.3458C139.09 10.5321 138.952 10.6968 138.766 10.7141C138.756 10.7151 138.745 10.7154 138.735 10.7154Z" fill="#96B6FA"/>
<path d="M118.534 28.4781V22.002C118.534 19.7665 120.387 17.976 122.622 18.0525L167.272 19.5823C169.253 19.6502 170.858 21.2143 170.977 23.1934L171.35 29.416L118.534 28.4781Z" fill="#1E147E"/>
<path d="M135.183 20.4927H133.263C133.076 20.4927 132.924 20.3411 132.924 20.1539C132.924 19.9666 133.076 19.815 133.263 19.815H135.183C135.371 19.815 135.522 19.9666 135.522 20.1539C135.522 20.3411 135.371 20.4927 135.183 20.4927Z" fill="#96B6FA"/>
<path d="M120.951 26.4445C120.764 26.4445 120.612 26.293 120.612 26.1057V23.4858C120.612 21.4616 122.259 19.8149 124.283 19.8149H131.343C131.53 19.8149 131.682 19.9665 131.682 20.1538C131.682 20.3411 131.53 20.4927 131.343 20.4927H124.283C122.633 20.4927 121.29 21.8355 121.29 23.4858V26.1057C121.29 26.293 121.138 26.4445 120.951 26.4445Z" fill="#96B6FA"/>
<path d="M100.342 30.1135C100.449 27.8709 102.299 26.108 104.544 26.1079L182.623 26.1058C185.431 26.1057 187.831 28.1261 188.31 30.8924L188.376 31.2742C188.9 34.3043 186.567 37.0757 183.492 37.0757H103.388C101.547 37.0757 100.081 35.5369 100.169 33.6987L100.342 30.1135Z" fill="#5153F1"/>
<path d="M109.793 74.088V72.502C109.793 71.0521 110.016 69.7874 110.462 68.7072C110.907 67.6277 111.719 66.4683 112.897 65.2297C114.015 64.0062 114.728 63.0472 115.038 62.3524C115.347 61.6579 115.503 60.7743 115.503 59.7016C115.503 58.7201 115.276 57.9197 114.823 57.3002C114.37 56.6811 113.652 56.3712 112.671 56.3712C111.039 56.3712 109.325 56.953 107.528 58.1157L105.398 53.5846C107.769 51.9687 110.397 51.1605 113.282 51.1605C115.774 51.1605 117.742 51.8514 119.184 53.2334C120.626 54.6154 121.348 56.5377 121.348 58.9993C121.348 60.7211 121.099 62.1824 120.6 63.3832C120.102 64.5839 119.067 66.0305 117.496 67.7217C116.484 68.8245 115.838 69.674 115.559 70.2705C115.279 70.8675 115.14 71.6791 115.14 72.706V74.088H109.793ZM108.729 81.655C108.729 80.4622 109.049 79.5445 109.691 78.9023C110.333 78.2606 111.266 77.9394 112.489 77.9394C113.728 77.9394 114.664 78.268 115.299 78.925C115.933 79.582 116.25 80.4922 116.25 81.655C116.25 82.8031 115.925 83.7093 115.276 84.3737C114.626 85.0381 113.697 85.3705 112.489 85.3705C111.281 85.3705 110.352 85.0454 109.703 84.3963C109.053 83.7472 108.729 82.8331 108.729 81.655Z" fill="#FF877F"/>
</g>
<g opacity="0.773243">
<path d="M49.1656 275.572L49.5766 279.037C49.5766 279.037 51.9403 280.137 53.5545 278.898L52.5757 275.037L49.1656 275.572Z" fill="#FFABA8"/>
<path d="M49.4745 210.425C49.2969 211.33 48.5213 255.583 53.2514 275.413C53.3287 275.737 53.1647 276.071 52.8567 276.197C52.1313 276.493 50.7088 276.922 49.0042 276.979C48.4763 276.997 48.0031 276.654 47.8541 276.147C46.5021 271.546 40.023 248.493 39.1777 226.472C38.2333 201.865 39.1777 225.634 39.1777 225.634L39.7317 210.423L49.4745 210.425Z" fill="#5153F1"/>
<path d="M49.5848 277.274C49.5848 277.274 49.073 280.171 48.8222 283.039C48.7241 284.159 49.5882 285.133 50.7123 285.18C54.5312 285.338 62.7001 285.648 65.6314 285.517C66.072 285.497 66.3601 285.046 66.1971 284.636C66.0604 284.293 65.7968 284.015 65.461 283.861L51.9675 277.659L49.5848 277.274Z" fill="#1E147E"/>
<path d="M34.0628 278.785C34.0628 278.785 33.2483 280.248 32.4597 284.134C32.3173 284.836 32.8076 285.508 33.5204 285.578C34.7814 285.702 36.7227 285.861 38.2776 285.85C38.9945 285.845 39.5539 285.221 39.4676 284.51C39.2953 283.091 38.7587 280.764 37.1011 278.95L34.0628 278.785Z" fill="#1E147E"/>
<path d="M33.3474 274.328L34.3082 279.569C34.3082 279.569 35.2579 280.275 37.137 279.763L36.6786 274.125L33.3474 274.328Z" fill="#FFABA8"/>
<path d="M30.7522 211.783C26.8835 235.131 31.5913 269.489 33.1792 276.214C33.2764 276.626 33.6086 276.941 34.0259 277.01C34.7347 277.128 35.9015 277.224 37.0519 276.89C37.4482 276.775 37.7267 276.417 37.7428 276.005C37.9559 270.568 37.5725 237.192 41.1772 224.001C41.3599 223.332 41.7681 222.75 42.3329 222.348L49.3295 217.374L49.8659 209.334L30.7522 211.783Z" fill="#5153F1"/>
<path d="M54.3478 171.09C52.976 171.617 52.0338 172.264 51.5489 173.29C50.7152 175.054 51.8805 177.583 54.3017 178.629C56.0195 179.372 58.198 179.295 59.5077 178.834C59.5077 178.834 59.565 178.814 61.4069 178.109C65.5688 175.906 68.5834 173.45 70.7462 170.933C67.1172 169.788 64.3388 167.595 62.8662 166.231C60.1547 168.29 57.1722 170.004 54.3478 171.09Z" fill="#FF877F"/>
<path d="M55.4036 167.543C43.8098 167.352 31.0175 170.588 31.0175 170.588C27.5616 190.752 30.4131 214.011 30.4131 214.011C39.3887 216.365 49.5137 212.572 49.5137 212.572C51.0056 204.144 57.9659 180.423 57.9659 180.423C59.4007 176.728 58.9796 167.602 55.4036 167.543Z" fill="#FF877F"/>
<path d="M80.1963 148.206C78.9644 147.739 78.2994 148.797 78.2994 148.797C79.9193 154.489 76.468 162.302 71.7454 168.158C73.0792 169.667 75.5665 172.065 78.6839 173.169C85.0871 160.805 80.1963 148.206 80.1963 148.206Z" fill="#FFABA8"/>
<path d="M90.2164 147.96C90.406 148.184 89.8577 149.291 88.9079 148.534C88.6462 147.995 87.3482 145.844 87.3853 145.175C87.5828 141.613 88.6986 136.354 88.6986 136.354C89.3673 136.544 89.2745 137.417 89.2745 137.417L88.8514 140.234C89.3795 140.632 89.9189 140.883 90.3986 141.51C90.7619 141.985 90.9689 142.659 90.993 143.372C91.0171 144.087 91.035 145.03 91.0026 145.81C90.9412 147.286 90.2164 147.96 90.2164 147.96Z" fill="#FFABA8"/>
<path d="M88.0219 141.892L87.512 144.181L87.7364 145.777L89.3521 146.385C89.3521 146.385 88.5597 143.542 88.5579 142.769C88.556 141.995 88.3152 141.845 88.0219 141.892Z" fill="#FFABA8"/>
<path d="M32.0222 184.295L32.4216 174.762C32.4216 174.762 22.7169 176.058 18.6224 182.007C19.9819 182.851 22.3763 184.568 24.3141 187.182C26.2199 184.358 32.0222 184.295 32.0222 184.295Z" fill="#FF877F"/>
<path d="M43.1517 196.377C43.1517 196.377 30.6164 197.415 28.7847 193.002C28.4045 192.085 28.5828 191.331 29.1026 190.711C26.4876 188.752 23.4211 187.536 21.6944 186.95C20.4058 188.456 19.7753 190.266 20.3199 192.427C22.6882 201.826 43.666 198.513 43.666 198.513L43.1517 196.377Z" fill="#FFABA8"/>
<path d="M42.8318 192.976L55.1116 179.766C55.251 179.616 55.4809 179.561 55.6964 179.627C56.6498 179.919 59.4086 180.774 62.5581 181.838C66.3517 183.118 70.7122 184.701 73.1671 185.965C73.5162 186.144 73.5763 186.572 73.2808 186.788C70.6225 188.735 59.7436 196.629 55.1495 198.779C54.9971 198.85 54.8133 198.851 54.6513 198.781L43.0493 193.755C42.7117 193.609 42.6036 193.221 42.8318 192.976Z" fill="#1E147E"/>
<path d="M60.3821 175.191L64.8335 175.854C65.0706 175.89 65.1843 176.079 65.0419 176.201L64.2089 176.915C64.1364 176.977 64.0142 177.004 63.8941 176.983L59.6545 176.257C59.4352 176.22 59.3246 176.049 59.4405 175.927L60.0615 175.275C60.1284 175.205 60.2549 175.172 60.3821 175.191Z" fill="#96B6FA"/>
<path d="M56.361 177.798L57.2703 176.763C57.3616 176.659 57.5594 176.608 57.7569 176.638L66.9056 178.019C67.2136 178.065 67.3738 178.279 67.2188 178.436L65.9722 179.701C65.8725 179.803 65.6693 179.848 65.4731 179.812L56.6614 178.2C56.3746 178.148 56.2271 177.95 56.361 177.798Z" fill="#96B6FA"/>
<path d="M44.1744 193.478C44.1744 193.478 44.676 190.632 45.3761 189.852C46.0764 189.071 47.1579 188.147 48.8318 189.193C50.5059 190.238 52.3052 191.846 52.3052 191.846C52.3052 191.846 51.6481 192.975 50.4616 191.997L51.0324 192.956C51.0324 192.956 50.471 193.844 49.5542 192.835L49.9762 193.96C49.9762 193.96 49.1197 194.516 48.504 193.648C47.8884 192.78 46.4349 194.839 44.1744 193.478Z" fill="#FFABA8"/>
<path d="M43.6601 158.131L39.9711 168.799C39.9101 168.976 39.9826 169.172 40.1463 169.262C41.1518 169.818 44.7747 171.425 49.1406 168.657C49.5954 168.369 49.905 167.899 49.974 167.364L51.1687 158.131H43.6601Z" fill="#FFABA8"/>
<path d="M54.2759 151.89C54.2759 151.89 53.6681 158.819 51.9741 160.711C50.2801 162.604 47.0033 160.34 45.15 156.782L46.687 149.851L54.2759 151.89Z" fill="#FFABA8"/>
<path d="M44.7605 154.082C44.9149 154.103 45.0544 153.981 45.0539 153.825C45.0521 153.349 45.0847 152.401 45.3411 151.713C45.3411 151.713 45.055 151.087 47.0621 151.749C49.0692 152.41 52.0787 153.369 53.5834 152.204C55.0505 151.068 56.0102 146.508 51.9089 148.059C51.7529 148.118 51.5855 148.017 51.5724 147.852C51.5159 147.141 51.1968 145.54 49.4773 145.317C47.8682 145.108 47.1348 145.95 46.8531 146.429C46.7701 146.57 46.5807 146.602 46.4641 146.493C45.9122 145.977 44.4674 144.929 42.7546 146.067C41.3437 147.004 41.2518 147.976 41.3661 148.551C41.4032 148.737 41.2319 148.898 41.0486 148.85C40.5523 148.721 39.7896 148.745 39.2132 149.765C38.4162 151.177 39.9922 151.992 40.4588 152.197C40.5353 152.23 40.5902 152.298 40.6035 152.381C40.7065 153.022 41.2386 155.802 42.8888 157.127C43.0318 157.242 43.2506 157.161 43.2956 156.98L43.9814 154.212C44.0132 154.084 44.1374 153.998 44.2672 154.016L44.7605 154.082Z" fill="#1E147E"/>
<path d="M46.4434 156.161C46.4434 156.161 45.1365 153.884 44.2172 154.888C43.2982 155.892 45.1068 157.347 46.4537 157.427L46.4434 156.161Z" fill="#FFABA8"/>
</g>
<g opacity="0.773243">
<path d="M204.197 164.202C204.182 163.876 204.549 163.693 204.769 163.917C205.582 164.746 207.178 166.08 208.846 165.845C208.93 165.833 209.01 165.823 209.089 165.816C209.043 165.586 208.921 165.363 208.648 165.222C207.865 164.819 208.104 163.427 208.104 163.427C208.104 163.427 208.598 164.2 209.455 164.335C210.192 164.452 210.968 165.27 211.07 166.284C211.991 169.703 213.083 174.307 218.851 174.472C224.62 174.638 225.944 162.593 225.944 162.593L228.47 174.318C228.47 174.318 225.912 180.76 217.906 179.166C209.899 177.573 209.373 168.097 209.373 168.097C209.373 168.097 204.417 168.959 204.197 164.202Z" fill="#FFABA8"/>
<path d="M241.419 144.577C241.419 144.577 243.435 137.942 248.683 143.607C248.683 143.607 251.934 145.077 250.403 148.24C250.403 148.24 251.554 150.907 248.702 152.613C248.702 152.613 255.689 154.045 255.168 161.16C254.648 168.275 250.732 169.737 247.923 168.909C247.923 168.909 249.268 171.274 247.04 173.053C244.811 174.832 239.262 173.396 238.131 168.637C238.131 168.637 229.744 164.51 233.203 158.601C233.203 158.601 230.994 153.6 237.519 151.195C244.044 148.79 241.419 144.577 241.419 144.577Z" fill="#1E147E"/>
<path d="M231.776 165.306C233.723 164.723 239.392 163.645 244.784 168.621C245.698 169.465 246.072 170.748 245.746 171.949C244.298 177.281 240.477 193.034 243.827 199.851C243.827 199.851 237.923 206.36 231.481 201.113C231.481 201.113 228.591 188.517 224.805 182.987C222.191 179.169 228.972 168.651 230.688 166.109C230.948 165.725 231.331 165.44 231.776 165.306Z" fill="#FF877F"/>
<path d="M237.152 154.713C237.152 154.713 240.031 162.858 240.248 166.451C240.248 166.451 237.065 167.898 234.066 165.456C234.066 165.456 233.752 157.32 233.297 155.863L237.152 154.713Z" fill="#FFABA8"/>
<path d="M236.892 145.081C236.892 145.081 228.219 149.148 229.875 153.199C231.53 157.25 237.7 154.363 237.7 154.363C237.7 154.363 240.965 151.118 240.562 148.979C240.159 146.841 236.892 145.081 236.892 145.081Z" fill="#FFABA8"/>
<path d="M239.957 142.573C239.957 142.573 237.47 141.666 236.573 142.54C235.675 143.413 238.516 146.708 239.439 147.4L237.813 152.275C237.813 152.275 242.326 149.707 242.729 146.734C243.132 143.76 239.957 142.573 239.957 142.573Z" fill="#1E147E"/>
<path d="M239.547 151.524C239.547 151.524 242.942 150.413 242.882 152.293C242.821 154.172 239.501 153.826 239.01 152.624L239.547 151.524Z" fill="#FFABA8"/>
<path d="M223.961 227.561C223.983 228.133 222.979 232.669 222.432 235.089C222.212 236.062 222.366 237.081 222.861 237.947L241.785 269.797C242.014 270.182 242.181 270.599 242.282 271.036C242.629 272.53 243.348 276.193 242.973 279.526L241.994 281.559L246.227 280.597L247.149 269.227L245.95 268.497C244.914 267.865 244.108 266.922 243.647 265.8C241.935 261.644 237.686 251.063 236.591 245.907C235.346 240.047 228.838 235.287 228.838 235.287L229.982 232.584L223.961 227.561Z" fill="#FFABA8"/>
<path d="M250.933 276.685C250.933 276.685 248.646 273.06 248.377 271.649C248.108 270.238 247.359 267.747 245.95 268.497C245.95 268.497 245.286 275.351 245.515 278.029C245.744 280.707 242.487 280.621 242.487 280.621C242.487 280.621 241.589 280.747 240.932 281.404C240.478 281.858 240.803 282.645 241.443 282.687C242.509 282.755 244.202 282.773 245.979 282.43C246.6 282.31 247.061 281.781 247.098 281.15L247.568 273.261L250.452 276.903L250.933 276.685Z" fill="#1E147E"/>
<path d="M235.266 232.635C235.266 232.635 235.933 261.124 236.024 265.17C236.114 269.216 235.385 278.183 231.328 280.863L233.093 282.17C233.093 282.17 235.299 280.295 237.454 276.687C239.875 272.634 240.607 271.893 240.607 271.893L239.804 270.248C239.452 269.528 239.349 268.713 239.511 267.928C240.386 263.686 243.31 249.575 244.108 246.536C245.049 242.949 245.116 238.159 241.84 234.149C238.565 230.139 235.266 232.635 235.266 232.635Z" fill="#FFABA8"/>
<path d="M239.011 283.454C239.137 283.455 239.244 283.365 239.262 283.24C239.397 282.29 239.959 278.483 240.419 277.497C240.945 276.367 242.666 271.615 240.418 271.211C240.418 271.211 234.828 279.377 233.755 280.478C232.682 281.579 231.328 280.863 231.328 280.863C231.328 280.863 230.283 281.172 229.494 282.179C229.119 282.659 229.469 283.363 230.078 283.368L233.842 283.404C234.936 283.415 235.919 282.75 236.326 281.735C236.988 280.08 238.127 277.653 239.454 276.575L238.764 283.177C238.749 283.324 238.863 283.452 239.011 283.454Z" fill="#1E147E"/>
<path d="M230.59 198.042C230.59 198.042 231.438 200.746 230.135 205.2L222.05 233.433C221.923 233.877 222.162 234.341 222.597 234.497C225.015 235.365 232.965 237.818 243.818 237.07C244.364 237.032 244.822 236.645 244.941 236.111C245.656 232.892 248.096 221.91 248.598 219.654C250.512 211.056 252.65 201.784 243.247 196.177C238.914 198.033 234.873 199.127 230.59 198.042Z" fill="#1E147E"/>
<path d="M245.556 169.685C245.556 169.685 254.755 177.33 257.037 187.777C259.32 198.223 243.595 199.333 243.595 199.333C243.595 199.333 241.461 196.949 238.926 197.8C236.392 198.65 238.73 193.639 241.695 193.652C244.66 193.666 243.287 196.01 247.482 194.11C251.568 192.259 254.094 186.535 243.668 177.857C243.063 177.354 242.581 176.713 242.291 175.982C240.265 170.884 241.872 167.542 245.556 169.685Z" fill="#FFABA8"/>
</g>
</svg>
